<svg width="500" height="400" viewBox="0 0 500 400" xmlns="http://www.w3.org/2000/svg">
  <!-- Background -->
  <rect x="0" y="0" width="500" height="400" fill="none" />
  
  <!-- Laptop base -->
  <rect x="100" y="200" width="300" height="20" rx="5" fill="#2c3e50" />
  <rect x="120" y="100" width="260" height="150" rx="10" fill="#34495e" />
  <rect x="130" y="110" width="240" height="130" rx="5" fill="#ecf0f1" />
  
  <!-- Screen content (AI assistant) -->
  <rect x="150" y="130" width="200" height="90" rx="5" fill="#f8f9fa" />
  
  <!-- Chat bubbles -->
  <rect x="160" y="140" width="120" height="30" rx="15" fill="#e74c3c" />
  <rect x="220" y="180" width="120" height="30" rx="15" fill="#3498db" />
  
  <!-- Mortarboard/graduation cap -->
  <rect x="210" y="50" width="80" height="10" fill="#34495e" />
  <rect x="200" y="60" width="100" height="10" fill="#34495e" />
  <polygon points="250,30 280,60 220,60" fill="#34495e" />
  <circle cx="250" cy="30" r="10" fill="#e74c3c" />
  
  <!-- Decorative elements -->
  <circle cx="80" cy="150" r="15" fill="#e74c3c" opacity="0.6" />
  <circle cx="400" cy="120" r="20" fill="#3498db" opacity="0.6" />
  <circle cx="420" cy="220" r="10" fill="#2ecc71" opacity="0.6" />
  <circle cx="50" cy="220" r="12" fill="#f1c40f" opacity="0.6" />
</svg> 